{
    "asset":  {
                  "version":  "2.0",
                  "generator":  "MCP Shader Debug Mesh Generator"
              },
    "buffers":  [
                    {
                        "uri":  "reference_floor.bin",
                        "byteLength":  140
                    }
                ],
    "bufferViews":  [
                        {
                            "buffer":  0,
                            "byteOffset":  0,
                            "byteLength":  48,
                            "target":  34962
                        },
                        {
                            "buffer":  0,
                            "byteOffset":  48,
                            "byteLength":  48,
                            "target":  34962
                        },
                        {
                            "buffer":  0,
                            "byteOffset":  96,
                            "byteLength":  32,
                            "target":  34962
                        },
                        {
                            "buffer":  0,
                            "byteOffset":  128,
                            "byteLength":  12,
                            "target":  34963
                        }
                    ],
    "accessors":  [
                      {
                          "bufferView":  0,
                          "componentType":  5126,
                          "count":  4,
                          "type":  "VEC3",
                          "min":  [
                                      -2.25,
                                      0,
                                      -1.5
                                  ],
                          "max":  [
                                      2.25,
                                      0,
                                      1.5
                                  ]
                      },
                      {
                          "bufferView":  1,
                          "componentType":  5126,
                          "count":  4,
                          "type":  "VEC3"
                      },
                      {
                          "bufferView":  2,
                          "componentType":  5126,
                          "count":  4,
                          "type":  "VEC2"
                      },
                      {
                          "bufferView":  3,
                          "componentType":  5123,
                          "count":  6,
                          "type":  "SCALAR"
                      }
                  ],
    "meshes":  [
                   {
                       "name":  "reference_floor",
                       "primitives":  [
                                          {
                                              "attributes":  {
                                                                 "POSITION":  0,
                                                                 "NORMAL":  1,
                                                                 "TEXCOORD_0":  2
                                                             },
                                              "indices":  3,
                                              "mode":  4
                                          }
                                      ]
                   }
               ],
    "nodes":  [
                  {
                      "name":  "reference_floor",
                      "mesh":  0
                  }
              ],
    "scenes":  [
                   {
                       "nodes":  [
                                     0
                                 ]
                   }
               ],
    "scene":  0
}
